<?xml version="1.0" encoding="UTF-8"?>
<svg id="Layer_1" xmlns="http://www.w3.org/2000/svg" version="1.1" viewBox="0 0 24 24">
  <!-- Generator: Adobe Illustrator 30.1.0, SVG Export Plug-In . SVG Version: 2.1.1 Build 136)  -->
  <defs>
    <style>
      .st0 {
        fill: #fff;
      }

      .st1 {
        fill: #101010;
      }
    </style>
  </defs>
  <circle class="st1" cx="12" cy="12" r="11.5"/>
  <path class="st0" d="M19.99,13.15l-1.84-1.49-1.6-4.99s-.02-.03-.03-.04c-.03-.07-.07-.13-.11-.2-.04-.06-.07-.12-.11-.16-.05-.05-.11-.09-.17-.13-.06-.04-.11-.08-.17-.11-.06-.03-.13-.04-.19-.06-.07-.02-.14-.04-.22-.04-.02,0-.03,0-.05,0h-7s-.03,0-.05,0c-.08,0-.15.03-.23.05-.07.02-.13.03-.19.06-.06.03-.11.07-.17.11-.06.04-.12.08-.17.13-.04.05-.07.1-.11.16-.04.07-.09.13-.12.21,0,.02-.02.03-.02.04l-1.6,4.99-1.84,1.49c-.36.29-.5.78-.34,1.22.16.44.57.73,1.04.73h6.2v3.4c0,.61.49,1.1,1.1,1.1s1.1-.49,1.1-1.1v-3.4h6.2c.47,0,.88-.29,1.04-.73s.02-.93-.34-1.22ZM7.72,12.9c.05-.08.1-.17.13-.26l1.46-4.54h5.4l1.46,4.54c.03.09.07.18.13.26H7.72Z"/>
</svg>