<?xml version="1.0" encoding="UTF-8"?>
<svg id="Layer_1" data-name="Layer 1" xmlns="http://www.w3.org/2000/svg" viewBox="0 0 24 24">
  <defs>
    <style>
      .cls-1 {
        fill: #ac612e;
      }

      .cls-2 {
        fill: #fff;
      }
    </style>
  </defs>
  <circle class="cls-1" cx="12" cy="12" r="11.5"/>
  <path class="cls-2" d="M20.59,12.93l-1.98-1.61-1.72-5.36s-.02-.03-.03-.05c-.03-.08-.08-.14-.12-.21-.04-.06-.07-.12-.12-.18-.05-.06-.12-.1-.18-.14-.06-.04-.11-.09-.18-.12-.07-.03-.14-.04-.21-.06-.08-.02-.16-.04-.24-.05-.02,0-.03-.01-.05-.01h-7.52s-.03,0-.05.01c-.08,0-.16.03-.24.05-.07.02-.14.03-.21.06-.07.03-.12.08-.18.12-.06.05-.13.09-.18.14-.05.05-.08.11-.11.17-.05.07-.09.14-.12.22,0,.02-.02.03-.03.05l-1.72,5.36-1.98,1.61c-.39.31-.54.84-.37,1.31.17.47.61.79,1.11.79h6.66v3.66c0,.65.53,1.18,1.18,1.18s1.18-.53,1.18-1.18v-3.66h6.67c.5,0,.95-.31,1.11-.79s.02-1-.37-1.31ZM7.4,12.66c.06-.09.1-.18.13-.28l1.56-4.88h5.8l1.56,4.88c.03.1.08.2.14.28H7.4Z"/>
</svg>